<svg width="18" height="20" viewBox="0 0 18 20" fill="none" xmlns="http://www.w3.org/2000/svg">
<path fill-rule="evenodd" clip-rule="evenodd" d="M14.8346 8.33203C14.8346 4.94938 12.9693 2.6016 10.5558 1.89679C10.4684 1.67066 10.3303 1.46045 10.1425 1.28406C9.50106 0.681356 8.50152 0.681356 7.86005 1.28406C7.67272 1.46006 7.5348 1.66975 7.44738 1.89531C5.03075 2.59706 3.16797 4.9397 3.16797 8.33203C3.16797 10.5269 2.72545 11.7568 1.90627 12.6481C1.76932 12.7971 1.3983 13.1385 1.14694 13.3697L1.14686 13.3698L1.14684 13.3698L1.14673 13.3699L1.14664 13.37C1.02781 13.4793 0.93578 13.5639 0.907939 13.592L0.667969 13.8353V16.6771H5.74128C5.91283 17.5621 6.39305 18.1543 7.26147 18.6842C8.32976 19.3361 9.67285 19.3361 10.7411 18.6842C11.5075 18.2165 12.0214 17.4978 12.2299 16.6771H17.3346V13.8353L17.0947 13.592C17.0695 13.5664 16.9814 13.4852 16.8663 13.379L16.8658 13.3785L16.8655 13.3783L16.8655 13.3783L16.8655 13.3782C16.6148 13.147 16.2365 12.798 16.0975 12.6461C15.2777 11.7507 14.8346 10.5192 14.8346 8.33203ZM10.4486 16.6771H7.48348C7.60122 16.8961 7.80189 17.0615 8.12965 17.2615C8.66486 17.5881 9.33775 17.5881 9.87296 17.2615C10.1208 17.1103 10.3145 16.9101 10.4486 16.6771ZM14.8681 13.7715C15.0435 13.9631 15.4193 14.3132 15.668 14.542V15.0104H2.33462V14.5423C2.58135 14.3163 2.95832 13.9664 3.13336 13.776C4.24648 12.5649 4.83462 10.9302 4.83462 8.33204C4.83462 5.18195 6.7786 3.34235 9.00129 3.34235C11.2177 3.34235 13.168 5.19144 13.168 8.33204C13.168 10.9219 13.7563 12.557 14.8681 13.7715Z" fill="#2D9CDB"/>
</svg>
