<svg width="35" height="35" viewBox="0 0 35 35" fill="none" xmlns="http://www.w3.org/2000/svg">
<path fill-rule="evenodd" clip-rule="evenodd" d="M7.09924 3.50445C6.78955 3.50378 6.49101 3.53896 6.20732 3.60583C5.81844 2.74563 5.30476 1.9739 4.72052 1.38756C3.72889 0.392386 2.16496 0 0 0V3.5C1.32254 3.5 2.08361 3.69095 2.25448 3.86244C2.91357 4.52389 3.4875 5.86786 3.4875 7L3.50503 7.24749L5.21367 19.2509C2.35468 19.3998 0.139845 21.6279 0.00214234 24.4133L0 26.25C0.168832 29.1269 2.3763 31.3399 5.13227 31.4972L5.52814 31.4978C6.24565 33.538 8.18396 35 10.4625 35C12.7402 35 14.6779 33.5391 15.3961 31.5H19.4789C20.1971 33.5391 22.1348 35 24.4125 35C27.3016 35 29.6437 32.6495 29.6437 29.75C29.6437 26.8505 27.3016 24.5 24.4125 24.5C22.1348 24.5 20.1971 25.9609 19.4789 28H15.3961C14.6779 25.9609 12.7402 24.5 10.4625 24.5C8.18478 24.5 6.24706 25.9609 5.52892 28H5.23125C4.34195 27.9464 3.54423 27.1467 3.48437 26.1452L3.4875 24.5C3.53452 23.5923 4.32679 22.7972 5.31766 22.7479L8.76006 22.7487L8.78501 22.75H26.36L26.6174 22.668C27.9395 22.247 28.9979 21.2478 29.4991 19.9544L29.6827 19.5895L29.6877 19.5798C29.9298 19.0986 29.9321 19.094 30.2796 18.4028C30.8971 17.1744 31.5146 15.9438 32.1163 14.7417C33.5902 11.7969 34.5172 9.92541 34.7224 9.46585C35.7766 7.10579 33.6412 5.28931 31.4585 5.25063L7.09924 3.50445ZM25.7552 19.2518H8.91654C8.80458 19.2205 8.71925 19.1253 8.70255 19.0068L6.99386 7.00304L31.2025 8.74287C30.779 9.60982 30.009 11.1583 29.0009 13.1724L28.9756 13.2229C28.4002 14.3725 27.7835 15.6013 27.1669 16.8281C26.8197 17.5185 26.8174 17.5232 26.5757 18.0036L26.5707 18.0134L26.3448 18.4622L26.2597 18.6606C26.1686 18.9153 25.9878 19.1246 25.7552 19.2518ZM24.4131 31.497C25.3762 31.497 26.1569 30.7135 26.1569 29.747C26.1569 28.7805 25.3762 27.997 24.4131 27.997C23.4501 27.997 22.6694 28.7805 22.6694 29.747C22.6694 30.7135 23.4501 31.497 24.4131 31.497ZM12.2068 29.747C12.2068 30.7135 11.4261 31.497 10.4631 31.497C9.5 31.497 8.7193 30.7135 8.7193 29.747C8.7193 28.7805 9.5 27.997 10.4631 27.997C11.4261 27.997 12.2068 28.7805 12.2068 29.747Z" fill="#2D9CDB"/>
</svg>
