<svg width="38" height="34" viewBox="0 0 38 34" fill="none" xmlns="http://www.w3.org/2000/svg">
<path d="M7.75069 9.07068C10.2061 9.07068 12.1967 7.09151 12.1967 4.65009C12.1967 2.20866 10.2061 0.229492 7.75069 0.229492C5.29523 0.229492 3.30469 2.20866 3.30469 4.65009C3.30469 7.09151 5.29523 9.07068 7.75069 9.07068Z" fill="#D8D8D8"/>
<path d="M10.2581 19.8016L10.6761 16.4011C10.9041 14.6253 11.7781 13.114 13.0701 12.0561C12.1961 10.9604 10.8661 10.2803 9.38407 10.2803H6.07807C3.68407 10.2803 1.67007 12.0561 1.40407 14.4364L0.948073 18.2147C0.872073 18.7058 1.21407 19.1592 1.70807 19.2726C3.60807 19.6882 5.66007 19.8771 7.75007 19.8771C8.62407 19.9149 9.46007 19.8771 10.2581 19.8016Z" fill="#D8D8D8"/>
<path d="M30.2468 9.07068C32.7022 9.07068 34.6928 7.09151 34.6928 4.65009C34.6928 2.20866 32.7022 0.229492 30.2468 0.229492C27.7913 0.229492 25.8008 2.20866 25.8008 4.65009C25.8008 7.09151 27.7913 9.07068 30.2468 9.07068Z" fill="#D8D8D8"/>
<path d="M36.5918 14.3983C36.3258 12.018 34.2738 10.2422 31.9178 10.2422H28.6118C27.1298 10.2422 25.7998 10.9223 24.9258 12.018C26.2178 13.0759 27.1298 14.5872 27.3198 16.363L27.7378 19.7635C28.5358 19.839 29.4098 19.8768 30.2458 19.8768C32.3738 19.8768 34.3878 19.6501 36.2878 19.2723C36.7818 19.1589 37.0858 18.7055 37.0478 18.2144L36.5918 14.3983Z" fill="#D8D8D8"/>
<path d="M25.7992 20.4432L25.3432 16.6271C25.0772 14.2846 23.0632 12.5088 20.6692 12.5088H17.3632C14.9692 12.5088 12.9552 14.2846 12.6892 16.6271L12.2332 20.4432C12.1572 20.9344 12.4992 21.4255 12.9932 21.5011C14.8932 21.9167 16.9452 22.1056 19.0352 22.1056C21.1632 22.1056 23.1772 21.8789 25.0772 21.5011C25.5332 21.4255 25.8372 20.9344 25.7992 20.4432Z" fill="#D8D8D8"/>
<path d="M18.9968 11.3002C21.4522 11.3002 23.4428 9.321 23.4428 6.87958C23.4428 4.43815 21.4522 2.45898 18.9968 2.45898C16.5413 2.45898 14.5508 4.43815 14.5508 6.87958C14.5508 9.321 16.5413 11.3002 18.9968 11.3002Z" fill="#D8D8D8"/>
<path d="M23.1767 27.0548L21.2387 26.9037C20.9347 26.8659 20.6307 26.677 20.5167 26.3747L19.7567 24.5989C19.4527 23.9188 18.4647 23.9188 18.1987 24.5989L17.4387 26.3747C17.3247 26.677 17.0587 26.8659 16.7167 26.9037L14.8167 27.0548C14.0567 27.1304 13.7527 28.0372 14.3227 28.5284L15.8047 29.7752C16.0327 29.9641 16.1467 30.3042 16.0707 30.6064L15.6147 32.4956C15.4247 33.2134 16.2227 33.7802 16.8687 33.4023L18.5407 32.3822C18.8067 32.2311 19.1487 32.2311 19.4147 32.3822L21.0867 33.4023C21.7327 33.7802 22.5307 33.2134 22.3407 32.4956L21.8847 30.6064C21.8087 30.3042 21.9227 29.9641 22.1507 29.7752L23.6327 28.5284C24.2407 28.0372 23.9367 27.1304 23.1767 27.0548Z" fill="#D8D8D8"/>
<path d="M34.4267 24.8263L32.4887 24.6752C32.1847 24.6374 31.8807 24.4485 31.7667 24.1462L31.0067 22.3704C30.7027 21.6903 29.7147 21.6903 29.4487 22.3704L28.6887 24.1462C28.5747 24.4485 28.3087 24.6374 27.9667 24.6752L26.0667 24.8263C25.3067 24.9019 25.0027 25.8087 25.5727 26.2998L27.0547 27.5467C27.2827 27.7356 27.3967 28.0756 27.3207 28.3779L26.8647 30.267C26.6747 30.9849 27.4727 31.5894 28.1187 31.1738L29.7907 30.1537C30.0567 30.0026 30.3987 30.0026 30.6647 30.1537L32.3367 31.1738C32.9827 31.5517 33.7807 30.9849 33.5907 30.267L33.1347 28.3779C33.0587 28.0756 33.1727 27.7356 33.4007 27.5467L34.8827 26.2998C35.4907 25.8087 35.1867 24.9019 34.4267 24.8263Z" fill="#D8D8D8"/>
<path d="M11.9306 24.8263L9.99257 24.6752C9.68857 24.6374 9.38457 24.4485 9.27057 24.1462L8.51057 22.3704C8.20657 21.6903 7.21857 21.6903 6.95257 22.3704L6.19257 24.1462C6.07857 24.4485 5.81257 24.6374 5.47057 24.6752L3.57057 24.8263C2.81057 24.9019 2.50657 25.8087 3.07657 26.2998L4.55857 27.5467C4.78657 27.7356 4.90057 28.0756 4.82457 28.3779L4.36857 30.267C4.17857 30.9849 4.97657 31.5894 5.62257 31.1738L7.29457 30.1537C7.56057 30.0026 7.90257 30.0026 8.16857 30.1537L9.84057 31.1738C10.4866 31.5517 11.2846 30.9849 11.0946 30.267L10.6386 28.3779C10.5626 28.0756 10.6766 27.7356 10.9046 27.5467L12.3866 26.2998C12.9946 25.8087 12.6906 24.9019 11.9306 24.8263Z" fill="#D8D8D8"/>
</svg>
