<svg width="20" height="18" viewBox="0 0 20 18" fill="none" xmlns="http://www.w3.org/2000/svg">
<path d="M17.3651 2.84709C16.9395 2.42126 16.4342 2.08347 15.8779 1.853C15.3217 1.62253 14.7255 1.50391 14.1235 1.50391C13.5214 1.50391 12.9252 1.62253 12.369 1.853C11.8128 2.08347 11.3074 2.42126 10.8818 2.84709L9.99847 3.73043L9.11514 2.84709C8.25539 1.98735 7.08933 1.50435 5.87347 1.50435C4.65761 1.50435 3.49155 1.98735 2.6318 2.84709C1.77206 3.70684 1.28906 4.8729 1.28906 6.08876C1.28906 7.30462 1.77206 8.47068 2.6318 9.33043L3.51514 10.2138L9.99847 16.6971L16.4818 10.2138L17.3651 9.33043C17.791 8.9048 18.1288 8.39944 18.3592 7.84322C18.5897 7.28701 18.7083 6.69083 18.7083 6.08876C18.7083 5.48669 18.5897 4.89051 18.3592 4.3343C18.1288 3.77808 17.791 3.27272 17.3651 2.84709V2.84709Z" stroke="#2D9CDB" stroke-width="2" stroke-linecap="round" stroke-linejoin="round"/>
</svg>
