<svg width="36" height="36" viewBox="0 0 36 36" fill="none" xmlns="http://www.w3.org/2000/svg">
<path d="M9.28539 1.37026C10.0329 1.37026 10.7636 1.59192 11.3851 2.00719C12.0066 2.42246 12.491 3.01271 12.777 3.70329C13.063 4.39386 13.1379 5.15375 12.9921 5.88686C12.8462 6.61998 12.4863 7.29338 11.9578 7.82192C11.4292 8.35047 10.7558 8.71041 10.0227 8.85624C9.28958 9.00206 8.52969 8.92722 7.83911 8.64117C7.14854 8.35513 6.55829 7.87073 6.14302 7.24922C5.72774 6.62772 5.50609 5.89703 5.50609 5.14956C5.5061 4.14723 5.90427 3.18595 6.61303 2.4772C7.32178 1.76845 8.28306 1.37027 9.28539 1.37026ZM1.10678 20.8H4.29769L3.03285 18.1793L4.31688 15.5201L4.7432 14.6375V20.8H13.8275V14.0865C13.8595 14.1172 13.8899 14.1495 13.9185 14.1833L14.2538 14.6385L16.4003 17.5516C16.52 17.7145 16.6727 17.8504 16.8485 17.9503C17.0242 18.0501 17.2191 18.1118 17.4203 18.1313C17.6215 18.1507 17.8246 18.1275 18.0162 18.0631C18.2079 17.9987 18.3837 17.8946 18.5324 17.7576L23.2182 13.4551C23.3579 13.3275 23.4711 13.1737 23.5512 13.0023C23.6313 12.8309 23.6769 12.6454 23.6852 12.4564C23.6935 12.2675 23.6644 12.0787 23.5996 11.9009C23.5349 11.7232 23.4356 11.56 23.3077 11.4207C23.1797 11.2814 23.0255 11.1687 22.8539 11.089C22.6823 11.0094 22.4966 10.9645 22.3076 10.9567C22.1186 10.949 21.9299 10.9786 21.7524 11.044C21.5748 11.1093 21.4119 11.209 21.273 11.3374L17.7658 14.5571L16.2327 12.4777C15.8434 11.9517 15.3365 11.5239 14.7525 11.2286C14.1685 10.9333 13.5236 10.7786 12.8692 10.7769H6.0369C5.25121 10.7794 4.48205 11.0027 3.81707 11.4211C3.15209 11.8396 2.61806 12.4365 2.27583 13.1437L0.143737 17.5564C0.0491458 17.7513 0 17.9651 0 18.1817C0 18.3983 0.0491458 18.6121 0.143737 18.807L1.10678 20.8ZM8.50677e-05 35.3447C8.50677e-05 36.2185 10.8789 36.2185 10.8789 35.3447C10.8789 32.8519 8.44368 30.8307 5.43928 30.8307C2.43488 30.8307 8.50677e-05 32.8519 8.50677e-05 35.3447ZM35.6001 0H18.1447V1.6H34.4001V18.4H25.4979V20H35.6001C35.7062 20 35.808 19.9579 35.883 19.8828C35.958 19.8078 36.0001 19.7061 36.0001 19.6V0.4C36.0001 0.293913 35.958 0.192172 35.883 0.117157C35.808 0.0421428 35.7062 0 35.6001 0ZM7.97445 27.4468C7.97445 26.9455 7.82577 26.4553 7.54722 26.0385C7.26867 25.6216 6.87276 25.2967 6.40956 25.1048C5.94636 24.913 5.43666 24.8628 4.94493 24.9606C4.45319 25.0584 4.00151 25.2998 3.64699 25.6544C3.29247 26.0089 3.05104 26.4606 2.95323 26.9523C2.85542 27.444 2.90562 27.9537 3.09749 28.4169C3.28936 28.8801 3.61427 29.2761 4.03114 29.5546C4.44801 29.8331 4.93812 29.9818 5.43949 29.9818C6.1118 29.9818 6.75658 29.7147 7.23198 29.2393C7.70738 28.7639 7.97445 28.1191 7.97445 27.4468ZM25.1211 35.3447C25.1211 36.2185 35.9999 36.2185 35.9999 35.3447C35.9999 32.8518 33.5651 30.8307 30.5607 30.8307C27.5562 30.8307 25.1211 32.8518 25.1211 35.3447ZM33.0955 27.4468C33.0955 26.9454 32.9468 26.4553 32.6683 26.0385C32.3897 25.6216 31.9938 25.2967 31.5306 25.1048C31.0674 24.9129 30.5577 24.8627 30.066 24.9605C29.5742 25.0584 29.1225 25.2998 28.768 25.6543C28.4135 26.0088 28.172 26.4605 28.0742 26.9523C27.9764 27.444 28.0266 27.9537 28.2185 28.4169C28.4103 28.8801 28.7353 29.276 29.1521 29.5546C29.569 29.8331 30.0591 29.9818 30.5605 29.9818C30.8934 29.9818 31.223 29.9162 31.5306 29.7889C31.8382 29.6615 32.1176 29.4747 32.353 29.2393C32.5884 29.0039 32.7751 28.7245 32.9025 28.4169C33.0299 28.1094 33.0955 27.7797 33.0955 27.4468ZM23.4394 35.3447C23.4394 32.8518 21.0046 30.8307 18.0002 30.8307C14.9958 30.8307 12.5606 32.8518 12.5606 35.3447C12.5606 36.2185 23.4394 36.2185 23.4394 35.3447ZM15.465 27.4468C15.465 27.9482 15.6137 28.4383 15.8923 28.8552C16.1708 29.2721 16.5667 29.597 17.0299 29.7888C17.4931 29.9807 18.0028 30.0309 18.4946 29.9331C18.9863 29.8353 19.438 29.5939 19.7925 29.2393C20.147 28.8848 20.3885 28.4331 20.4863 27.9414C20.5841 27.4497 20.5339 26.94 20.342 26.4767C20.1502 26.0135 19.8253 25.6176 19.4084 25.3391C18.9915 25.0605 18.5014 24.9118 18 24.9118C17.6671 24.9118 17.3375 24.9774 17.0299 25.1048C16.7224 25.2322 16.4429 25.4189 16.2075 25.6543C15.9721 25.8897 15.7854 26.1692 15.658 26.4767C15.5306 26.7843 15.465 27.1139 15.465 27.4468Z" fill="#D8D8D8"/>
</svg>
