<svg width="606" height="298" viewBox="0 0 606 298" fill="none" xmlns="http://www.w3.org/2000/svg">
<path d="M583.754 187.862C575.767 187.084 569.38 191.853 561.391 191.092C552.802 190.274 546.061 183.252 541.807 175.746C537.553 168.24 534.92 159.826 529.952 152.771C525.774 146.837 520.104 142.109 513.515 139.064C506.926 136.019 499.651 134.765 492.424 135.429C485.196 136.092 478.27 138.65 472.346 142.843C466.422 147.037 461.708 152.718 458.68 159.315V263.964H605.55V219.238C605.679 205.507 597.42 189.193 583.754 187.862Z" fill="#F0F5F9"/>
<path d="M0 263.961C4.56251 254.533 5.32273 243.777 8.0874 233.674C10.8521 223.571 16.666 213.156 26.6334 209.937C35.1089 207.201 44.4945 210.462 51.7481 215.63C57.6739 219.852 63.9599 225.681 71.0693 224.134C77.1273 222.815 80.6952 216.606 82.8852 210.806C91.7257 187.388 91.0786 159.654 107.021 140.357C120.172 124.438 143.134 118.082 163.154 123.138C183.175 128.195 195.395 143.69 203.755 162.572C212.114 181.453 211.536 263.961 211.536 263.961H0Z" fill="#F0F5F9"/>
<path d="M495.018 237.408H106.625V243.869H495.018V237.408Z" fill="#5C9BFF"/>
<path d="M65.043 243.871C65.043 246.509 65.5626 249.121 66.5721 251.559C67.5817 253.996 69.0614 256.21 70.9268 258.076C72.7923 259.941 75.0068 261.421 77.4441 262.43C79.8813 263.44 82.4936 263.959 85.1316 263.959H516.51C519.148 263.959 521.76 263.44 524.198 262.43C526.635 261.421 528.849 259.941 530.715 258.076C532.58 256.21 534.06 253.996 535.069 251.559C536.079 249.121 536.599 246.509 536.599 243.871H65.043Z" fill="url(#paint0_linear)"/>
<g style="mix-blend-mode:multiply" opacity="0.8">
<path d="M340.03 250.196H261.61C258.959 250.196 256.339 249.632 253.923 248.542C251.507 247.451 249.351 245.859 247.598 243.871H354.043C352.289 245.859 350.133 247.451 347.717 248.542C345.301 249.632 342.681 250.196 340.03 250.196Z" fill="#5C9BFF"/>
</g>
<path d="M492.699 0H108.94C105.664 0 103.008 2.65607 103.008 5.9325V232.974C103.008 236.25 105.664 238.906 108.94 238.906H492.699C495.975 238.906 498.631 236.25 498.631 232.974V5.9325C498.631 2.65607 495.975 0 492.699 0Z" fill="url(#paint1_linear)"/>
<path d="M487.763 21.7109H113.875V226.932H487.763V21.7109Z" fill="url(#paint2_linear)"/>
<path opacity="0.5" d="M115.941 21.7109H113.875V226.882H115.941V21.7109Z" fill="#5C9BFF"/>
<path opacity="0.4" d="M294.529 11.0576C294.529 11.7921 294.312 12.5102 293.904 13.121C293.496 13.7318 292.915 14.2078 292.237 14.4889C291.558 14.77 290.811 14.8436 290.091 14.7003C289.371 14.557 288.709 14.2033 288.189 13.6839C287.67 13.1645 287.316 12.5027 287.173 11.7822C287.03 11.0618 287.103 10.315 287.384 9.63638C287.665 8.95774 288.141 8.37769 288.752 7.96961C289.363 7.56152 290.081 7.34372 290.816 7.34375C291.801 7.34375 292.745 7.73503 293.442 8.4315C294.138 9.12798 294.529 10.0726 294.529 11.0576Z" fill="white"/>
<path d="M169.648 189.847C165.965 185.647 170.668 181.695 171.194 180.893C171.216 180.863 171.241 180.831 171.263 180.801C173.944 177.119 175.247 171.367 171.806 167.677C169.955 165.718 167.576 164.337 164.957 163.701C162.338 163.065 159.59 163.201 157.047 164.092C151.013 166.293 148.409 171.919 147.607 177.907C147.329 180.665 147.82 183.447 149.027 185.944L169.648 189.847Z" fill="#0059F0"/>
<path d="M168.277 172.311C168.665 175.017 169.263 176.127 168.896 178.188L168.572 179.051C168.551 179.087 168.531 179.123 168.508 179.159L168.537 179.143L167.556 181.759C166.957 183.344 165.753 184.628 164.209 185.327C162.665 186.027 160.907 186.085 159.32 185.489C157.733 184.894 156.447 183.693 155.744 182.15C155.041 180.608 154.979 178.849 155.571 177.261L156.676 174.317C158.573 171.77 165.265 175.659 168.277 172.311Z" fill="#E7AFA7"/>
<path d="M158.12 175.685C157.953 176.131 157.657 176.518 157.27 176.796C156.882 177.074 156.421 177.231 155.945 177.247C155.468 177.263 154.998 177.138 154.593 176.886C154.188 176.635 153.866 176.269 153.669 175.835C153.472 175.401 153.408 174.918 153.485 174.448C153.562 173.977 153.777 173.54 154.103 173.192C154.428 172.844 154.85 172.6 155.314 172.491C155.778 172.383 156.264 172.414 156.71 172.581C157.007 172.693 157.278 172.861 157.51 173.077C157.741 173.293 157.927 173.553 158.058 173.841C158.189 174.129 158.262 174.44 158.273 174.757C158.283 175.073 158.232 175.389 158.12 175.685Z" fill="#E7AFA7"/>
<path d="M155.511 181.799C154.8 182.482 146.418 192.743 146.418 192.743L158.605 194.585L159.315 185.499L155.511 181.799Z" fill="#E7AFA7"/>
<path d="M175.069 218.855C175.608 219.395 175.974 220.083 176.122 220.831C176.27 221.58 176.192 222.355 175.899 223.06C175.606 223.764 175.111 224.365 174.476 224.788C173.841 225.211 173.094 225.436 172.332 225.435C171.569 225.434 170.823 225.206 170.19 224.782C169.556 224.357 169.063 223.754 168.772 223.048C168.481 222.343 168.406 221.567 168.556 220.819C168.706 220.071 169.074 219.385 169.614 218.846C170.339 218.124 171.321 217.719 172.344 217.721C173.367 217.722 174.347 218.13 175.069 218.855Z" fill="#E7AFA7"/>
<path d="M176.028 220.354L169.067 223.678L156.54 199.69C156.145 199.098 155.883 198.429 155.77 197.727C155.657 197.025 155.696 196.307 155.885 195.621C156.074 194.936 156.408 194.299 156.864 193.754C157.321 193.209 157.889 192.768 158.531 192.461C161.256 191.16 166.734 193.377 167.636 196.259L176.028 220.354Z" fill="#E7AFA7"/>
<path d="M211.969 243.242H160.496L158.203 229.928L203.452 233.027C205.843 233.464 208.005 234.725 209.561 236.592C211.117 238.458 211.969 240.811 211.969 243.242Z" fill="#0051C7"/>
<path d="M214.994 291.882H218.375L215.935 280.527H210.988L214.994 291.882Z" fill="#E7AFA7"/>
<path d="M189.344 290.902H192.725L195.307 280.527H190.36L189.344 290.902Z" fill="#E7AFA7"/>
<path d="M193.552 289.795L190.845 290.983L188.33 289.795L186.074 297.159H206.993C206.993 293.477 199.129 293.477 199.129 293.477L193.552 289.795Z" fill="#1B3874"/>
<path d="M218.895 289.795L216.188 290.983L213.674 289.795L211.418 297.159H232.337C232.337 293.477 224.472 293.477 224.472 293.477L218.895 289.795Z" fill="#1B3874"/>
<path d="M216.892 284.105H211.949L195.758 243.24H211.97L216.892 284.105Z" fill="#0051C7"/>
<path d="M203.075 245.204L187.248 248.495L141.762 225.766L194.558 234.99C196.949 235.426 199.11 236.688 200.667 238.554C202.223 240.421 203.075 242.774 203.075 245.204Z" fill="#006CFF"/>
<path d="M142.506 223.936C142.14 226.605 138.527 230.045 138.652 238.026C138.726 242.814 141.877 245.783 145.46 247.393C148.457 248.739 152.533 248.497 155.062 248.497H187.247L168.357 229.926L142.506 223.936Z" fill="#006CFF"/>
<path d="M194.665 284.104H189.722L187.25 248.497L203.076 245.207L194.665 284.104Z" fill="#006CFF"/>
<path d="M196.203 228.59L172.719 225.42L170.883 217.736L196.203 224.819V228.59Z" fill="#E7AFA7"/>
<path d="M141.762 225.767L143.233 219.004L138.777 192.81C138.819 192.186 138.992 191.578 139.285 191.025C139.578 190.472 139.984 189.987 140.477 189.602C140.971 189.217 141.539 188.94 142.147 188.79C142.754 188.64 143.386 188.62 144.002 188.731L161.824 190.426C162.44 190.537 163.026 190.776 163.542 191.129C164.059 191.482 164.496 191.939 164.823 192.472C165.151 193.005 165.363 193.601 165.445 194.222C165.526 194.842 165.476 195.472 165.297 196.072L160.733 227.955L141.762 225.767Z" fill="#FFCB4C"/>
<path d="M172.466 208.012L163.382 211.901L156.121 200.005C155.645 199.189 155.357 198.277 155.277 197.336C155.197 196.395 155.326 195.448 155.657 194.563C155.987 193.678 156.51 192.878 157.187 192.22C157.865 191.561 158.68 191.062 159.574 190.757C161.141 190.223 162.854 190.319 164.351 191.025C165.849 191.731 167.013 192.991 167.598 194.539L172.466 208.012Z" fill="#FFCB4C"/>
<path d="M201.943 232.959L165.148 231.054V229.928L201.943 231.832V232.959Z" fill="#003AA7"/>
<path d="M203.156 232.121L178.605 231.088L185.273 213.266H209.853L203.156 232.121Z" fill="#003AA7"/>
<path d="M160.338 230.013L135.798 226.881L135.02 219.158L160.338 226.241V230.013Z" fill="#E7AFA7"/>
<path d="M140.141 222.485C140.248 223.24 140.127 224.01 139.796 224.697C139.464 225.384 138.936 225.958 138.279 226.345C137.622 226.732 136.864 226.915 136.103 226.872C135.341 226.829 134.609 226.56 134 226.101C133.391 225.642 132.932 225.012 132.68 224.292C132.429 223.572 132.397 222.793 132.588 222.055C132.779 221.316 133.185 220.651 133.754 220.143C134.323 219.635 135.03 219.308 135.786 219.202C136.287 219.131 136.798 219.16 137.288 219.287C137.779 219.414 138.239 219.636 138.644 219.941C139.048 220.246 139.389 220.628 139.646 221.064C139.903 221.501 140.071 221.983 140.141 222.485Z" fill="#E7AFA7"/>
<path d="M160.34 226.244L163.519 225.433C164.793 225.108 166.124 225.086 167.407 225.369C168.691 225.652 169.89 226.231 170.909 227.061L175.061 230.442L160.34 229.977V226.244Z" fill="#E7AFA7"/>
<path d="M168.481 248.496H118.898V297.159H168.481V248.496Z" fill="#0055D6"/>
<path d="M118.896 248.496H99.543V297.159H118.896V248.496Z" fill="#0070FF"/>
<path d="M155.587 177.225L149.027 177.804V185.942C154.62 189.845 159.2 183.935 159.2 183.935C154.67 180.667 155.239 178.159 155.572 177.259" fill="#0059F0"/>
<path d="M140.007 224.261L132.504 222.469L137.981 195.151C138.152 192.136 139.811 190.855 142.772 191.451C145.732 192.048 148.78 197.111 147.769 199.957L140.007 224.261Z" fill="#E7AFA7"/>
<path d="M144.824 210.415L135.418 207.389L137.746 193.647C137.923 192.719 138.304 191.842 138.861 191.08C139.418 190.317 140.137 189.687 140.967 189.237C141.797 188.786 142.716 188.525 143.659 188.473C144.602 188.42 145.545 188.578 146.42 188.935C147.953 189.56 149.182 190.757 149.849 192.272C150.516 193.787 150.568 195.502 149.993 197.055L144.824 210.415Z" fill="#FFCB4C"/>
<path d="M146.418 188.938L158.696 201.306L160.104 190.169L146.418 188.938Z" fill="#E7AFA7"/>
<path d="M432.829 167.892C437.529 163.193 437.529 155.573 432.829 150.873C428.13 146.174 420.51 146.174 415.81 150.873C411.111 155.573 411.111 163.193 415.81 167.892C420.51 172.592 428.13 172.592 432.829 167.892Z" fill="#001868"/>
<path d="M443.866 286.92H429.47C427.052 286.923 424.733 287.885 423.023 289.595C421.313 291.305 420.351 293.624 420.348 296.042C420.346 296.19 420.374 296.337 420.429 296.474C420.485 296.611 420.567 296.736 420.671 296.841C420.775 296.946 420.899 297.029 421.035 297.086C421.172 297.143 421.318 297.173 421.466 297.173C421.614 297.173 421.76 297.143 421.897 297.086C422.033 297.029 422.157 296.946 422.261 296.841C422.365 296.736 422.447 296.611 422.503 296.474C422.558 296.337 422.586 296.19 422.584 296.042C422.586 294.217 423.312 292.466 424.603 291.175C425.894 289.884 427.644 289.158 429.47 289.156H430.25C429.26 290.01 428.465 291.067 427.92 292.255C427.376 293.443 427.093 294.735 427.093 296.042C427.091 296.19 427.119 296.337 427.174 296.474C427.23 296.611 427.312 296.736 427.416 296.841C427.52 296.946 427.644 297.029 427.78 297.086C427.916 297.143 428.063 297.173 428.211 297.173C428.359 297.173 428.505 297.143 428.642 297.086C428.778 297.029 428.902 296.946 429.006 296.841C429.11 296.736 429.192 296.611 429.247 296.474C429.303 296.337 429.331 296.19 429.329 296.042C429.331 295.136 429.511 294.238 429.86 293.402C430.209 292.565 430.719 291.805 431.362 291.165C432.005 290.526 432.767 290.019 433.605 289.675C434.444 289.33 435.342 289.154 436.249 289.156H437.12C438.946 289.158 440.696 289.884 441.987 291.175C443.278 292.466 444.004 294.217 444.006 296.042C444.006 296.339 444.124 296.623 444.333 296.833C444.543 297.043 444.827 297.16 445.124 297.16C445.421 297.16 445.705 297.043 445.915 296.833C446.124 296.623 446.242 296.339 446.242 296.042C446.242 294.734 445.959 293.442 445.413 292.254C444.867 291.065 444.071 290.009 443.08 289.156H443.866C445.691 289.158 447.441 289.885 448.732 291.175C450.023 292.466 450.749 294.217 450.751 296.042C450.751 296.339 450.868 296.623 451.078 296.833C451.288 297.043 451.572 297.16 451.869 297.16C452.165 297.16 452.45 297.043 452.659 296.833C452.869 296.623 452.987 296.339 452.987 296.042C452.984 293.624 452.022 291.305 450.313 289.595C448.603 287.885 446.284 286.923 443.866 286.92Z" fill="#006EFD"/>
<path d="M438.638 250.045H434.703V290.08H438.638V250.045Z" fill="#006EFD"/>
<path d="M454.016 251.689H419.321C418.631 251.689 417.969 251.415 417.481 250.927C416.993 250.439 416.719 249.777 416.719 249.087C416.719 248.397 416.993 247.735 417.481 247.247C417.969 246.759 418.631 246.484 419.321 246.484H454.016C454.706 246.484 455.368 246.759 455.856 247.247C456.344 247.735 456.618 248.397 456.618 249.087C456.618 249.428 456.551 249.767 456.42 250.083C456.29 250.398 456.098 250.685 455.856 250.927C455.615 251.169 455.328 251.36 455.012 251.491C454.696 251.622 454.358 251.689 454.016 251.689Z" fill="#FFCB4C"/>
<path d="M392.406 297.097C392.559 297.097 392.711 297.062 392.85 296.995C392.988 296.928 393.11 296.831 393.205 296.71C393.3 296.589 393.367 296.449 393.4 296.298C393.434 296.148 393.432 295.992 393.397 295.843L375.003 218.568H370.961L391.421 296.338C391.478 296.555 391.606 296.748 391.784 296.885C391.962 297.023 392.181 297.097 392.406 297.097Z" fill="#1B3874"/>
<path d="M424.045 181.789L435.563 182.717L429.983 169.133L421.473 171.019L424.045 181.789Z" fill="#C8987E"/>
<path d="M428.675 162.343C428.744 162.725 428.924 163.079 429.193 163.359C429.462 163.639 429.808 163.832 430.188 163.916C430.567 163.999 430.963 163.968 431.324 163.826C431.686 163.685 431.998 163.439 432.22 163.12C432.442 162.802 432.565 162.424 432.572 162.036C432.58 161.648 432.472 161.266 432.263 160.938C432.053 160.611 431.752 160.354 431.396 160.198C431.04 160.042 430.646 159.996 430.264 160.064C430.01 160.109 429.767 160.204 429.55 160.343C429.333 160.482 429.145 160.663 428.997 160.874C428.85 161.086 428.745 161.325 428.69 161.577C428.635 161.829 428.63 162.089 428.675 162.343Z" fill="#C8987E"/>
<path d="M418.655 155.443C417.191 155.94 415.968 156.971 415.231 158.33C414.602 159.508 414.386 160.863 414.618 162.179L414.824 163.331C414.842 163.381 414.857 163.431 414.878 163.481L414.846 163.454L415.421 166.669C416.213 171.103 420.186 174.328 424.406 173.645C425.442 173.449 426.429 173.049 427.309 172.468C428.189 171.887 428.944 171.136 429.531 170.26C430.118 169.385 430.525 168.401 430.728 167.366C430.931 166.331 430.927 165.266 430.714 164.234L430.01 160.294L430.008 160.286C430.008 160.286 428.582 152.583 418.655 155.443Z" fill="#C8987E"/>
<path d="M420.219 154.99C421.226 154.797 422.252 154.715 423.277 154.746C424.04 154.75 424.797 154.886 425.514 155.148C427.835 156.059 427.449 159.937 427.459 161.883C427.462 162.358 427.468 162.923 427.863 163.188C428.096 163.297 428.362 163.31 428.605 163.225C428.848 163.14 429.048 162.963 429.162 162.733C429.373 162.263 429.504 161.761 429.549 161.248C429.575 160.991 429.66 160.744 429.799 160.527C429.938 160.31 430.126 160.128 430.349 159.998C430.349 159.998 427.258 152.262 427.255 152.255C427.233 152.199 422.271 153.855 421.889 153.978C421.282 154.225 420.718 154.566 420.219 154.99Z" fill="#001868"/>
<path d="M406.356 208.611C405.884 209.21 405.599 209.936 405.539 210.696C405.479 211.457 405.646 212.218 406.019 212.884C406.391 213.549 406.953 214.09 407.632 214.436C408.312 214.783 409.079 214.92 409.837 214.83C410.594 214.741 411.309 214.429 411.889 213.933C412.469 213.438 412.889 212.782 413.097 212.048C413.304 211.313 413.289 210.534 413.053 209.809C412.818 209.083 412.372 208.444 411.773 207.971C410.97 207.338 409.948 207.049 408.932 207.169C407.916 207.289 406.99 207.808 406.356 208.611Z" fill="#C8987E"/>
<path d="M405.578 210.207L412.877 212.704L422.545 187.427C422.868 186.794 423.051 186.098 423.082 185.388C423.113 184.678 422.991 183.969 422.724 183.31C422.457 182.651 422.051 182.057 421.535 181.568C421.018 181.08 420.403 180.708 419.73 180.478C416.873 179.5 411.688 182.336 411.126 185.304L405.578 210.207Z" fill="#C8987E"/>
<path d="M382.824 241.211H429.379L425.058 228.182L391.342 230.996C388.951 231.433 386.789 232.694 385.233 234.561C383.677 236.427 382.824 238.78 382.824 241.211Z" fill="#DDDDDD"/>
<path d="M367.994 291.82H364.613L370.003 280.467H374.951L367.994 291.82Z" fill="#C8987E"/>
<path d="M405.452 290.84H402.071L399.488 280.467H404.435L405.452 290.84Z" fill="#C8987E"/>
<path d="M401.242 289.734L403.95 290.922L406.464 289.734L408.72 297.099H387.801C387.801 293.417 395.665 293.417 395.665 293.417L401.242 289.734Z" fill="#1B3874"/>
<path d="M364.094 289.734L366.801 290.922L369.315 289.734L371.571 297.099H350.652C350.652 293.417 358.517 293.417 358.517 293.417L364.094 289.734Z" fill="#1B3874"/>
<path d="M364.129 288.963L372.023 290.929L400.021 241.211L383.55 237.414L364.129 288.963Z" fill="#DDDDDD"/>
<path d="M391.719 243.176L407.546 246.467L449.961 228.178L425.057 228.18L400.237 232.961C397.846 233.398 395.684 234.66 394.128 236.526C392.571 238.393 391.719 240.746 391.719 243.176Z" fill="#F5F5F5"/>
<path d="M449.962 228.178C450.865 230.682 451.293 233.333 451.223 235.995C451.149 240.783 447.998 243.752 444.415 245.362C441.418 246.709 437.342 246.467 434.813 246.467H407.547L425.058 228.179L449.962 228.178Z" fill="#F5F5F5"/>
<path d="M400.131 288.964L408.025 289.946L407.546 246.47L391.719 243.18L400.131 288.964Z" fill="#F5F5F5"/>
<path d="M385.801 216.72L408.977 214.83L411.119 205.865L385.801 212.95V216.72Z" fill="#C8987E"/>
<path d="M449.962 228.178L442.51 176.393L416.03 178.856L414.74 186.17C414.553 199.22 428.449 221.681 425.057 228.18L449.962 228.178Z" fill="#FFCB4C"/>
<path d="M406.953 202.049L417.41 204.861L422.994 187.687C423.372 186.821 423.553 185.883 423.524 184.939C423.494 183.995 423.256 183.069 422.825 182.228C422.395 181.388 421.783 180.653 421.034 180.078C420.285 179.503 419.418 179.101 418.494 178.901C416.876 178.552 415.186 178.846 413.78 179.72C412.375 180.594 411.364 181.981 410.962 183.587L406.953 202.049Z" fill="#FFCB4C"/>
<path d="M423.633 218.143L447.582 216.003L448.953 207.289L423.633 214.372V218.143Z" fill="#C8987E"/>
<path d="M443.265 211.048C443.145 211.902 443.281 212.772 443.656 213.549C444.031 214.326 444.628 214.974 445.371 215.411C446.114 215.849 446.97 216.056 447.831 216.007C448.692 215.958 449.519 215.655 450.208 215.136C450.897 214.617 451.416 213.905 451.7 213.091C451.985 212.276 452.021 211.396 451.805 210.561C451.589 209.726 451.13 208.974 450.487 208.4C449.843 207.826 449.044 207.455 448.19 207.335C447.623 207.256 447.045 207.289 446.491 207.432C445.936 207.575 445.416 207.827 444.958 208.171C444.501 208.516 444.116 208.948 443.826 209.441C443.535 209.935 443.345 210.48 443.265 211.048Z" fill="#C8987E"/>
<path d="M423.635 214.373L420.455 213.562C419.182 213.237 417.851 213.215 416.567 213.498C415.284 213.78 414.085 214.36 413.066 215.19L408.914 218.571L423.635 218.106V214.373Z" fill="#C8987E"/>
<path d="M443.29 211.436L451.946 211.19L448.284 183.353C448.226 180.333 445.635 179.069 442.654 179.554C439.673 180.04 436.439 184.985 437.342 187.867L443.29 211.436Z" fill="#C8987E"/>
<path d="M440.492 203.774L451.182 201.867L448.751 182.409C448.69 181.467 448.421 180.55 447.962 179.724C447.504 178.898 446.868 178.184 446.1 177.634C445.332 177.084 444.452 176.712 443.522 176.543C442.593 176.375 441.638 176.415 440.726 176.661C439.128 177.092 437.759 178.127 436.91 179.549C436.061 180.97 435.798 182.665 436.177 184.277L440.492 203.774Z" fill="#FFCB4C"/>
<path d="M462.681 219.553H342.586C342.116 219.553 341.665 219.367 341.332 219.034C340.999 218.701 340.812 218.25 340.812 217.78C340.812 217.309 340.999 216.858 341.332 216.525C341.665 216.193 342.116 216.006 342.586 216.006H462.681C463.151 216.006 463.602 216.193 463.935 216.525C464.267 216.858 464.454 217.309 464.454 217.78C464.454 218.25 464.267 218.701 463.935 219.034C463.602 219.367 463.151 219.553 462.681 219.553Z" fill="#1B3874"/>
<path d="M333.202 297.097C333.048 297.097 332.896 297.062 332.758 296.995C332.62 296.928 332.498 296.831 332.403 296.71C332.307 296.589 332.241 296.449 332.208 296.298C332.174 296.148 332.176 295.992 332.211 295.843L350.605 218.568H354.647L334.187 296.338C334.13 296.555 334.002 296.748 333.824 296.885C333.646 297.023 333.427 297.097 333.202 297.097Z" fill="#1B3874"/>
<path d="M475.285 297.097C475.439 297.097 475.591 297.062 475.729 296.995C475.868 296.928 475.989 296.831 476.085 296.71C476.18 296.589 476.247 296.449 476.28 296.298C476.313 296.148 476.312 295.992 476.276 295.843L457.882 218.568H453.84L474.3 296.338C474.357 296.555 474.485 296.748 474.663 296.885C474.842 297.023 475.06 297.097 475.285 297.097Z" fill="#1B3874"/>
<path d="M416.085 297.097C415.931 297.097 415.779 297.062 415.641 296.995C415.503 296.928 415.381 296.831 415.286 296.71C415.19 296.589 415.124 296.449 415.09 296.298C415.057 296.148 415.058 295.992 415.094 295.843L433.488 218.568H437.53L417.07 296.338C417.012 296.555 416.885 296.748 416.707 296.885C416.529 297.023 416.31 297.097 416.085 297.097Z" fill="#1B3874"/>
<path d="M421.441 178.354L421.657 179.05C422.076 180.427 422.927 181.633 424.083 182.489C425.24 183.346 426.641 183.809 428.08 183.809C429.75 183.809 431.36 183.186 432.596 182.063C433.832 180.94 434.605 179.396 434.764 177.734L434.82 177.139L421.441 178.354Z" fill="#C8987E"/>
<path d="M398.653 215.068H369.994L361.141 197.246H389.8L398.653 215.068Z" fill="#006DFF"/>
<path d="M409.092 214.572H372.203V216.005H409.092V214.572Z" fill="#006DFF"/>
<path d="M312.772 137.494L319.375 129.411L297.209 109.854C296.678 109.401 296.055 109.068 295.384 108.877C294.713 108.686 294.008 108.642 293.318 108.747C292.628 108.852 291.969 109.104 291.385 109.486C290.801 109.869 290.306 110.372 289.933 110.962C288.351 113.469 289.715 118.793 292.942 121.785C296.169 124.778 312.772 137.494 312.772 137.494Z" fill="#F5F5F5"/>
<path d="M286.436 264.85H282.266V269.989H286.436V264.85Z" fill="#E7AFA7"/>
<path d="M247.656 269.994H251.827L253.75 264.855H249.579L247.656 269.994Z" fill="#E7AFA7"/>
<path d="M285.278 110.486L274.012 111.392L277.546 98.1074L284.004 99.1237L285.278 110.486Z" fill="#E7AFA7"/>
<path d="M266.946 159.059L260.413 114.431C260.272 113.869 260.251 113.283 260.352 112.713C260.452 112.142 260.672 111.599 260.997 111.119C261.322 110.639 261.744 110.233 262.236 109.927C262.729 109.621 263.28 109.423 263.855 109.345L293.73 108.588C294.304 108.51 294.888 108.555 295.444 108.718C296 108.881 296.516 109.16 296.956 109.536C297.397 109.913 297.754 110.378 298.003 110.901C298.252 111.424 298.387 111.994 298.401 112.574L296.212 156.899L266.946 159.059Z" fill="#F5F5F5"/>
<path d="M266.945 159.061L278.144 174.073L280.288 267.181H288.878L296.211 156.9L266.945 159.061Z" fill="#2D9CDB"/>
<path d="M290.813 157.299L288.15 171.77C287.854 173.378 287.004 174.831 285.748 175.877C284.492 176.924 282.908 177.496 281.274 177.496L253.719 267.181H246.68L266.944 159.06L290.813 157.299Z" fill="#81C4E9"/>
<path d="M267.267 91.4597C268.116 93.7559 269.725 95.6927 271.826 96.9491C273.928 98.2055 276.395 98.706 278.82 98.3675C281.245 98.0291 283.481 96.8721 285.158 95.0883C286.835 93.3045 287.852 91.0012 288.04 88.5602C288.27 85.5717 290.071 82.9007 290.152 79.8744C290.245 76.4394 287.216 74.669 284.035 75.2204C282.316 75.5185 280.706 76.2665 279.001 76.634C277.528 76.9513 276.008 76.9792 274.522 77.2306C272.817 77.5032 271.241 78.3054 270.018 79.5234C268.462 81.0286 267.386 82.9594 266.924 85.0738C266.42 87.1909 266.539 89.4087 267.267 91.4597Z" fill="#1A55B5"/>
<path d="M274.405 91.2211C274.422 91.6256 274.318 92.026 274.107 92.3717C273.897 92.7175 273.588 92.993 273.221 93.1634C272.854 93.3338 272.444 93.3916 272.044 93.3293C271.644 93.267 271.272 93.0874 270.974 92.8134C270.676 92.5393 270.466 92.1831 270.37 91.7897C270.275 91.3962 270.298 90.9833 270.437 90.6032C270.576 90.223 270.825 89.8926 271.152 89.6538C271.479 89.415 271.869 89.2785 272.274 89.2616C272.816 89.2389 273.345 89.4325 273.745 89.8C274.145 90.1675 274.382 90.6787 274.405 91.2211Z" fill="#E7AFA7"/>
<path d="M283.041 81.933C284.644 82.1068 286.121 82.8792 287.179 84.0957C288.085 85.1518 288.611 86.4816 288.672 87.872L288.724 89.0909C288.717 89.1462 288.712 89.2003 288.703 89.2561L288.729 89.221L288.871 92.6227C289.067 97.312 285.755 101.492 281.307 101.753C280.209 101.787 279.115 101.603 278.088 101.211C277.061 100.819 276.123 100.226 275.328 99.468C274.532 98.7097 273.896 97.8007 273.455 96.794C273.014 95.7872 272.778 94.7029 272.761 93.6041L272.586 89.4366L272.587 89.4279C272.587 89.4279 272.296 81.2685 283.041 81.933Z" fill="#E7AFA7"/>
<path d="M281.163 81.4133C280.16 81.4422 279.164 81.5816 278.192 81.8291C277.464 81.9952 276.771 82.2856 276.142 82.6875C274.119 84.0501 275.311 87.6703 275.714 89.5304C275.812 89.9848 275.926 90.5247 275.606 90.8623C275.406 91.0154 275.155 91.0845 274.905 91.0548C274.655 91.0251 274.427 90.899 274.268 90.7033C273.967 90.2992 273.736 89.8477 273.583 89.3676C273.504 89.1279 273.37 88.9102 273.192 88.7322C273.013 88.5543 272.795 88.4211 272.555 88.3436C272.555 88.3436 273.863 80.3028 273.864 80.2956C273.874 80.2366 278.963 80.7649 279.353 80.8009C279.985 80.9077 280.596 81.1145 281.163 81.4133Z" fill="#1A55B5"/>
<path d="M283.762 138.551L263.105 148.384L261.332 138.551L282.475 132.662L283.762 138.551Z" fill="white"/>
<path d="M264.208 139.615C265.007 140.268 265.595 141.143 265.896 142.13C266.198 143.117 266.201 144.171 265.903 145.16C265.606 146.148 265.022 147.026 264.226 147.683C263.429 148.339 262.456 148.745 261.429 148.848C260.402 148.952 259.368 148.748 258.456 148.264C257.545 147.779 256.798 147.035 256.309 146.126C255.821 145.217 255.613 144.183 255.712 143.156C255.81 142.129 256.212 141.154 256.865 140.354C257.298 139.824 257.832 139.384 258.436 139.059C259.039 138.735 259.701 138.532 260.383 138.464C261.065 138.395 261.753 138.461 262.41 138.659C263.066 138.856 263.677 139.181 264.208 139.615Z" fill="white"/>
<path d="M319.376 129.415C320.175 130.068 320.763 130.944 321.064 131.931C321.366 132.918 321.369 133.972 321.071 134.961C320.774 135.949 320.19 136.827 319.394 137.483C318.597 138.14 317.624 138.546 316.597 138.649C315.57 138.753 314.536 138.549 313.624 138.065C312.713 137.58 311.966 136.836 311.477 135.927C310.989 135.018 310.781 133.984 310.879 132.957C310.978 131.929 311.38 130.954 312.033 130.155C312.908 129.083 314.174 128.403 315.551 128.265C316.928 128.126 318.304 128.54 319.376 129.415Z" fill="#F5F5F5"/>
<path d="M337.63 122.329L319.374 137.5L313.586 128.87L336.167 115.703L337.63 122.329Z" fill="#F5F5F5"/>
<path d="M265.988 144.808L255.711 143.136L258.577 114.496C258.612 113.664 258.826 112.85 259.203 112.108C259.58 111.366 260.113 110.714 260.764 110.196C261.415 109.678 262.171 109.306 262.978 109.105C263.786 108.904 264.627 108.879 265.445 109.032C268.921 109.681 272.47 115.191 272.47 120.44C272.47 125.688 265.988 144.808 265.988 144.808Z" fill="white"/>
<path d="M299.795 150.964H280.242L290.08 122.922H309.632L299.795 150.964Z" fill="#FFCB4C"/>
<path d="M294.475 132.96C294.545 133.293 294.545 133.636 294.475 133.969C294.406 134.302 294.268 134.617 294.071 134.894C293.874 135.171 293.622 135.404 293.33 135.579C293.039 135.754 292.714 135.867 292.377 135.911L286.764 136.636L283.758 138.556L282.473 133.651L283.73 132.685C285.155 131.591 286.902 130.998 288.698 130.998H292.061C292.627 130.998 293.177 131.193 293.616 131.55C294.056 131.908 294.359 132.405 294.475 132.96Z" fill="#E7AFA7"/>
<path d="M350.006 113.363H342.429C340.632 113.363 338.886 113.956 337.461 115.05L336.203 116.016L337.083 121.18L340.495 119.001L343.689 120.055C344.428 120.319 345.235 120.325 345.978 120.071C346.72 119.818 347.355 119.32 347.778 118.658C348.099 118.113 348.265 117.49 348.258 116.857C348.252 116.224 348.072 115.605 347.74 115.067H350.006C350.226 115.059 350.435 114.965 350.588 114.806C350.741 114.648 350.827 114.436 350.827 114.215C350.827 113.994 350.741 113.782 350.588 113.624C350.435 113.465 350.226 113.371 350.006 113.363Z" fill="#E7AFA7"/>
<path d="M252.595 267.66L249.887 268.848L247.373 267.66L245.117 275.025H266.036C266.036 271.343 258.172 271.343 258.172 271.343L252.595 267.66Z" fill="#006DFF"/>
<path d="M287.173 267.66L284.466 268.848L281.952 267.66L279.695 275.025H300.615C300.615 271.343 292.75 271.343 292.75 271.343L287.173 267.66Z" fill="#006DFF"/>
<g style="mix-blend-mode:multiply" opacity="0.4">
<g style="mix-blend-mode:multiply" opacity="0.4">
<path d="M224.728 54.0059H149.871C144.961 54.0059 140.98 57.9862 140.98 62.8962V137.754C140.98 142.664 144.961 146.644 149.871 146.644H224.728C229.638 146.644 233.619 142.664 233.619 137.754V62.8962C233.619 57.9862 229.638 54.0059 224.728 54.0059Z" fill="#81ACEA"/>
</g>
</g>
<path d="M222.518 51.791H147.66C142.75 51.791 138.77 55.7714 138.77 60.6814V135.539C138.77 140.449 142.75 144.429 147.66 144.429H222.518C227.428 144.429 231.408 140.449 231.408 135.539V60.6814C231.408 55.7714 227.428 51.791 222.518 51.791Z" fill="white"/>
<path d="M221.47 69.8756H148.706C148.386 69.8756 148.069 69.8125 147.774 69.6901C147.478 69.5676 147.209 69.3881 146.983 69.1618C146.757 68.9356 146.577 68.6669 146.455 68.3713C146.333 68.0756 146.27 67.7588 146.27 67.4388C146.27 66.7925 146.526 66.1727 146.983 65.7157C147.44 65.2587 148.06 65.002 148.706 65.002H221.47C222.116 65.002 222.736 65.2587 223.193 65.7157C223.65 66.1727 223.906 66.7925 223.906 67.4388C223.906 67.7588 223.843 68.0756 223.721 68.3713C223.599 68.6669 223.419 68.9356 223.193 69.1618C222.967 69.3881 222.698 69.5676 222.402 69.6901C222.107 69.8125 221.79 69.8756 221.47 69.8756Z" fill="#E8E8E8"/>
<path d="M221.47 78.6684H148.706C148.386 78.6684 148.069 78.6054 147.774 78.4829C147.478 78.3604 147.209 78.1809 146.983 77.9547C146.757 77.7284 146.577 77.4598 146.455 77.1641C146.333 76.8685 146.27 76.5516 146.27 76.2316C146.27 75.5853 146.526 74.9656 146.983 74.5086C147.44 74.0517 148.06 73.7949 148.706 73.7949H221.47C222.116 73.7949 222.736 74.0517 223.193 74.5086C223.65 74.9656 223.906 75.5853 223.906 76.2316C223.906 76.5516 223.843 76.8685 223.721 77.1641C223.599 77.4598 223.419 77.7284 223.193 77.9547C222.967 78.1809 222.698 78.3604 222.402 78.4829C222.107 78.6054 221.79 78.6684 221.47 78.6684Z" fill="#E8E8E8"/>
<path d="M154.591 131.187H146.27V112.106C146.27 111.002 146.708 109.944 147.488 109.164C148.268 108.384 149.327 107.945 150.43 107.945C151.534 107.945 152.592 108.384 153.372 109.164C154.152 109.944 154.591 111.002 154.591 112.106V131.187Z" fill="#6DACFA"/>
<path d="M171.919 131.186H163.598V104.004C163.598 102.901 164.036 101.843 164.816 101.062C165.597 100.282 166.655 99.8438 167.758 99.8438C168.862 99.8438 169.92 100.282 170.7 101.062C171.481 101.843 171.919 102.901 171.919 104.004V131.186Z" fill="#A2DFFF"/>
<path d="M189.247 131.187H180.926V120.208C180.926 119.104 181.364 118.046 182.144 117.266C182.925 116.485 183.983 116.047 185.086 116.047C185.633 116.047 186.174 116.154 186.679 116.364C187.183 116.573 187.642 116.879 188.028 117.266C188.415 117.652 188.721 118.111 188.93 118.615C189.139 119.12 189.247 119.661 189.247 120.208V131.187Z" fill="#D1D5D8"/>
<path d="M206.575 131.186H198.254V104.004C198.254 102.901 198.692 101.843 199.473 101.062C200.253 100.282 201.311 99.8438 202.415 99.8438C203.518 99.8438 204.576 100.282 205.357 101.062C206.137 101.843 206.575 102.901 206.575 104.004V131.186Z" fill="#A2DFFF"/>
<path d="M223.907 131.186H215.586V95.9028C215.586 95.3564 215.694 94.8154 215.903 94.3106C216.112 93.8058 216.418 93.3472 216.804 92.9608C217.191 92.5745 217.649 92.268 218.154 92.0589C218.659 91.8498 219.2 91.7422 219.746 91.7422C220.293 91.7422 220.834 91.8498 221.339 92.0589C221.843 92.268 222.302 92.5744 222.688 92.9608C223.075 93.3471 223.381 93.8058 223.59 94.3106C223.799 94.8154 223.907 95.3564 223.907 95.9028V131.186Z" fill="#45A0FF"/>
<g style="mix-blend-mode:multiply" opacity="0.4">
<g style="mix-blend-mode:multiply" opacity="0.4">
<path d="M453.197 48.252H381.564C376.953 48.252 373.215 51.9899 373.215 56.6009V56.601C373.215 61.212 376.953 64.9499 381.564 64.9499H453.197C457.808 64.9499 461.546 61.212 461.546 56.601V56.6009C461.546 51.9899 457.808 48.252 453.197 48.252Z" fill="#81ACEA"/>
</g>
</g>
<path d="M452.092 62.7331H380.458C378.244 62.7331 376.12 61.8535 374.555 60.2878C372.989 58.722 372.109 56.5985 372.109 54.3842C372.109 52.1699 372.989 50.0463 374.555 48.4806C376.12 46.9148 378.244 46.0352 380.458 46.0352H452.092C453.188 46.0352 454.274 46.2511 455.287 46.6707C456.3 47.0903 457.22 47.7053 457.995 48.4805C458.771 49.2558 459.386 50.1762 459.805 51.1892C460.225 52.2021 460.441 53.2878 460.441 54.3842C460.441 56.5985 459.561 58.722 457.995 60.2878C456.43 61.8535 454.306 62.7331 452.092 62.7331Z" fill="#F6C157"/>
<g style="mix-blend-mode:multiply" opacity="0.4">
<g style="mix-blend-mode:multiply" opacity="0.4">
<path d="M453.197 119.493H381.564C379.349 119.493 377.226 118.613 375.66 117.047C374.094 115.482 373.215 113.358 373.215 111.144C373.215 108.93 374.094 106.806 375.66 105.24C377.226 103.675 379.349 102.795 381.564 102.795H453.197C454.293 102.795 455.379 103.011 456.392 103.43C457.405 103.85 458.325 104.465 459.101 105.24C459.876 106.015 460.491 106.936 460.91 107.949C461.33 108.962 461.546 110.047 461.546 111.144C461.546 112.24 461.33 113.326 460.91 114.339C460.491 115.352 459.876 116.272 459.101 117.047C458.325 117.823 457.405 118.438 456.392 118.857C455.379 119.277 454.293 119.493 453.197 119.493Z" fill="#81ACEA"/>
</g>
</g>
<path d="M452.092 117.278H380.458C378.244 117.278 376.12 116.398 374.555 114.833C372.989 113.267 372.109 111.143 372.109 108.929C372.109 106.715 372.989 104.591 374.555 103.025C376.12 101.46 378.244 100.58 380.458 100.58H452.092C453.188 100.58 454.274 100.796 455.287 101.216C456.3 101.635 457.22 102.25 457.995 103.025C458.771 103.801 459.386 104.721 459.805 105.734C460.225 106.747 460.441 107.833 460.441 108.929C460.441 110.025 460.225 111.111 459.805 112.124C459.386 113.137 458.771 114.057 457.995 114.833C457.22 115.608 456.3 116.223 455.287 116.642C454.274 117.062 453.188 117.278 452.092 117.278Z" fill="white"/>
<g style="mix-blend-mode:multiply" opacity="0.4">
<g style="mix-blend-mode:multiply" opacity="0.4">
<path d="M430.345 92.2155H358.712C356.498 92.2155 354.374 91.3359 352.809 89.7702C351.243 88.2045 350.363 86.0809 350.363 83.8666C350.363 82.7702 350.579 81.6845 350.999 80.6716C351.418 79.6586 352.033 78.7382 352.809 77.963C353.584 77.1877 354.504 76.5727 355.517 76.1531C356.53 75.7335 357.616 75.5176 358.712 75.5176H430.345C431.442 75.5176 432.527 75.7335 433.54 76.1531C434.553 76.5727 435.474 77.1877 436.249 77.963C437.024 78.7382 437.639 79.6586 438.059 80.6716C438.478 81.6845 438.694 82.7702 438.694 83.8666C438.694 86.0809 437.815 88.2045 436.249 89.7702C434.683 91.3359 432.56 92.2155 430.345 92.2155Z" fill="#81ACEA"/>
</g>
</g>
<path d="M429.24 90.0085H357.607C355.393 90.0085 353.269 89.1289 351.703 87.5632C350.137 85.9974 349.258 83.8739 349.258 81.6596C349.258 79.4453 350.137 77.3217 351.703 75.7559C353.269 74.1902 355.393 73.3105 357.607 73.3105H429.24C431.454 73.3105 433.578 74.1902 435.144 75.7559C436.709 77.3217 437.589 79.4453 437.589 81.6596C437.589 83.8739 436.709 85.9974 435.144 87.5632C433.578 89.1289 431.454 90.0085 429.24 90.0085Z" fill="#389DFF"/>
<path d="M433.646 56.0461H387.747C387.196 56.0461 386.669 55.8275 386.28 55.4384C385.89 55.0493 385.672 54.5216 385.672 53.9713C385.672 53.421 385.891 52.8933 386.28 52.5042C386.669 52.1151 387.196 51.8965 387.747 51.8965H433.646C434.196 51.8965 434.724 52.1151 435.113 52.5042C435.502 52.8933 435.72 53.421 435.721 53.9713C435.721 54.5216 435.502 55.0493 435.113 55.4384C434.724 55.8275 434.196 56.0461 433.646 56.0461Z" fill="white"/>
<path d="M442.962 56.0461C444.107 56.0461 445.036 55.1172 445.036 53.9713C445.036 52.8254 444.107 51.8965 442.962 51.8965C441.816 51.8965 440.887 52.8254 440.887 53.9713C440.887 55.1172 441.816 56.0461 442.962 56.0461Z" fill="white"/>
<path d="M413.896 83.7297H367.997C367.446 83.7297 366.919 83.5111 366.53 83.122C366.14 82.7329 365.922 82.2052 365.922 81.6549C365.922 81.3824 365.975 81.1126 366.08 80.8609C366.184 80.6092 366.337 80.3804 366.53 80.1877C366.722 79.9951 366.951 79.8423 367.203 79.738C367.454 79.6337 367.724 79.5801 367.997 79.5801H413.896C414.168 79.5801 414.438 79.6338 414.69 79.738C414.941 79.8423 415.17 79.9951 415.363 80.1878C415.555 80.3805 415.708 80.6092 415.812 80.8609C415.917 81.1126 415.97 81.3824 415.97 81.6549C415.97 82.2052 415.752 82.7329 415.363 83.122C414.974 83.5111 414.446 83.7297 413.896 83.7297Z" fill="#F6C157"/>
<path d="M425.286 81.6549C425.286 82.0653 425.165 82.4664 424.937 82.8076C424.709 83.1488 424.385 83.4148 424.006 83.5718C423.626 83.7289 423.209 83.7699 422.807 83.6899C422.404 83.6098 422.035 83.4122 421.744 83.122C421.454 82.8318 421.257 82.4621 421.177 82.0596C421.097 81.6571 421.138 81.2399 421.295 80.8608C421.452 80.4817 421.718 80.1577 422.059 79.9297C422.4 79.7017 422.801 79.5801 423.212 79.5801C423.762 79.5801 424.29 79.7987 424.679 80.1878C425.068 80.5769 425.286 81.1047 425.286 81.6549Z" fill="#F6C157"/>
<path d="M434.568 107.27H388.668C387.523 107.27 386.594 108.198 386.594 109.344V109.344C386.594 110.49 387.523 111.419 388.668 111.419H434.568C435.713 111.419 436.642 110.49 436.642 109.344V109.344C436.642 108.198 435.713 107.27 434.568 107.27Z" fill="#6DACFA"/>
<path d="M445.954 109.344C445.954 109.755 445.833 110.156 445.605 110.497C445.377 110.838 445.053 111.104 444.674 111.261C444.294 111.418 443.877 111.459 443.475 111.379C443.072 111.299 442.703 111.102 442.412 110.811C442.122 110.521 441.925 110.152 441.845 109.749C441.764 109.347 441.806 108.929 441.963 108.55C442.12 108.171 442.386 107.847 442.727 107.619C443.068 107.391 443.469 107.27 443.88 107.27C444.43 107.27 444.958 107.488 445.347 107.877C445.736 108.266 445.954 108.794 445.954 109.344Z" fill="#6DACFA"/>
<defs>
<linearGradient id="paint0_linear" x1="180.852" y1="128.062" x2="420.79" y2="368" gradientUnits="userSpaceOnUse">
<stop stop-color="#D8E7FD"/>
<stop offset="1" stop-color="#539DFF"/>
</linearGradient>
<linearGradient id="paint1_linear" x1="50942.3" y1="27207.2" x2="102319" y2="112286" gradientUnits="userSpaceOnUse">
<stop stop-color="#81C4E9" stop-opacity="0.44"/>
<stop offset="1" stop-color="#81C4E9" stop-opacity="0.42"/>
</linearGradient>
<linearGradient id="paint2_linear" x1="156.042" y1="-20.4556" x2="445.596" y2="269.099" gradientUnits="userSpaceOnUse">
<stop offset="0.226" stop-color="#E5F2FF"/>
<stop offset="1" stop-color="#B5D7FD"/>
</linearGradient>
</defs>
</svg>
