<svg width="440" height="17" viewBox="0 0 440 17" fill="none" xmlns="http://www.w3.org/2000/svg">
<path d="M156.131 8.988C156.131 9.73933 156.012 10.43 155.774 11.06C155.536 11.6853 155.2 12.2243 154.766 12.677C154.332 13.1297 153.809 13.482 153.198 13.734C152.591 13.9813 151.919 14.105 151.182 14.105C150.445 14.105 149.773 13.9813 149.166 13.734C148.559 13.482 148.039 13.1297 147.605 12.677C147.171 12.2243 146.835 11.6853 146.597 11.06C146.359 10.43 146.24 9.73933 146.24 8.988C146.24 8.23667 146.359 7.54833 146.597 6.923C146.835 6.293 147.171 5.75167 147.605 5.299C148.039 4.84167 148.559 4.487 149.166 4.235C149.773 3.983 150.445 3.857 151.182 3.857C151.919 3.857 152.591 3.983 153.198 4.235C153.809 4.487 154.332 4.84167 154.766 5.299C155.2 5.75167 155.536 6.293 155.774 6.923C156.012 7.54833 156.131 8.23667 156.131 8.988ZM154.738 8.988C154.738 8.372 154.654 7.819 154.486 7.329C154.318 6.839 154.08 6.426 153.772 6.09C153.464 5.74933 153.091 5.488 152.652 5.306C152.213 5.124 151.723 5.033 151.182 5.033C150.645 5.033 150.158 5.124 149.719 5.306C149.28 5.488 148.905 5.74933 148.592 6.09C148.284 6.426 148.046 6.839 147.878 7.329C147.71 7.819 147.626 8.372 147.626 8.988C147.626 9.604 147.71 10.157 147.878 10.647C148.046 11.1323 148.284 11.5453 148.592 11.886C148.905 12.222 149.28 12.481 149.719 12.663C150.158 12.8403 150.645 12.929 151.182 12.929C151.723 12.929 152.213 12.8403 152.652 12.663C153.091 12.481 153.464 12.222 153.772 11.886C154.08 11.5453 154.318 11.1323 154.486 10.647C154.654 10.157 154.738 9.604 154.738 8.988ZM160.853 8.827C161.245 8.827 161.59 8.78033 161.889 8.687C162.192 8.589 162.444 8.45367 162.645 8.281C162.85 8.10367 163.004 7.89367 163.107 7.651C163.21 7.40833 163.261 7.14 163.261 6.846C163.261 6.24867 163.065 5.79833 162.673 5.495C162.281 5.19167 161.693 5.04 160.909 5.04H159.425V8.827H160.853ZM165.487 14H164.283C164.036 14 163.854 13.9043 163.737 13.713L161.133 10.129C161.054 10.017 160.967 9.93767 160.874 9.891C160.785 9.83967 160.645 9.814 160.454 9.814H159.425V14H158.074V3.969H160.909C161.544 3.969 162.092 4.03433 162.554 4.165C163.016 4.291 163.396 4.47533 163.695 4.718C163.998 4.96067 164.222 5.25467 164.367 5.6C164.512 5.94067 164.584 6.32333 164.584 6.748C164.584 7.10267 164.528 7.434 164.416 7.742C164.304 8.05 164.141 8.32767 163.926 8.575C163.716 8.81767 163.457 9.02533 163.149 9.198C162.846 9.37067 162.5 9.50133 162.113 9.59C162.286 9.688 162.435 9.83033 162.561 10.017L165.487 14ZM176.124 12.859V14H170.433V3.969H171.784V12.859H176.124ZM186.428 8.988C186.428 9.73933 186.309 10.43 186.071 11.06C185.833 11.6853 185.497 12.2243 185.063 12.677C184.629 13.1297 184.106 13.482 183.495 13.734C182.888 13.9813 182.216 14.105 181.479 14.105C180.742 14.105 180.07 13.9813 179.463 13.734C178.856 13.482 178.336 13.1297 177.902 12.677C177.468 12.2243 177.132 11.6853 176.894 11.06C176.656 10.43 176.537 9.73933 176.537 8.988C176.537 8.23667 176.656 7.54833 176.894 6.923C177.132 6.293 177.468 5.75167 177.902 5.299C178.336 4.84167 178.856 4.487 179.463 4.235C180.07 3.983 180.742 3.857 181.479 3.857C182.216 3.857 182.888 3.983 183.495 4.235C184.106 4.487 184.629 4.84167 185.063 5.299C185.497 5.75167 185.833 6.293 186.071 6.923C186.309 7.54833 186.428 8.23667 186.428 8.988ZM185.035 8.988C185.035 8.372 184.951 7.819 184.783 7.329C184.615 6.839 184.377 6.426 184.069 6.09C183.761 5.74933 183.388 5.488 182.949 5.306C182.51 5.124 182.02 5.033 181.479 5.033C180.942 5.033 180.455 5.124 180.016 5.306C179.577 5.488 179.202 5.74933 178.889 6.09C178.581 6.426 178.343 6.839 178.175 7.329C178.007 7.819 177.923 8.372 177.923 8.988C177.923 9.604 178.007 10.157 178.175 10.647C178.343 11.1323 178.581 11.5453 178.889 11.886C179.202 12.222 179.577 12.481 180.016 12.663C180.455 12.8403 180.942 12.929 181.479 12.929C182.02 12.929 182.51 12.8403 182.949 12.663C183.388 12.481 183.761 12.222 184.069 11.886C184.377 11.5453 184.615 11.1323 184.783 10.647C184.951 10.157 185.035 9.604 185.035 8.988ZM196.519 9.177V13.027C196.015 13.391 195.476 13.664 194.902 13.846C194.333 14.0233 193.707 14.112 193.026 14.112C192.219 14.112 191.491 13.9883 190.842 13.741C190.193 13.489 189.638 13.139 189.176 12.691C188.719 12.2383 188.366 11.697 188.119 11.067C187.872 10.437 187.748 9.744 187.748 8.988C187.748 8.22267 187.867 7.525 188.105 6.895C188.348 6.265 188.691 5.726 189.134 5.278C189.577 4.82533 190.116 4.47533 190.751 4.228C191.386 3.98067 192.095 3.857 192.879 3.857C193.276 3.857 193.644 3.88733 193.985 3.948C194.326 4.004 194.641 4.088 194.93 4.2C195.219 4.30733 195.488 4.44033 195.735 4.599C195.982 4.753 196.213 4.928 196.428 5.124L196.043 5.74C195.982 5.83333 195.903 5.894 195.805 5.922C195.712 5.94533 195.607 5.922 195.49 5.852C195.378 5.78667 195.25 5.70733 195.105 5.614C194.96 5.52067 194.783 5.432 194.573 5.348C194.368 5.25933 194.123 5.18467 193.838 5.124C193.558 5.06333 193.224 5.033 192.837 5.033C192.272 5.033 191.761 5.12633 191.304 5.313C190.847 5.495 190.457 5.75867 190.135 6.104C189.813 6.44467 189.566 6.86 189.393 7.35C189.22 7.83533 189.134 8.38133 189.134 8.988C189.134 9.618 189.223 10.1827 189.4 10.682C189.582 11.1767 189.839 11.599 190.17 11.949C190.506 12.2943 190.912 12.558 191.388 12.74C191.864 12.922 192.398 13.013 192.991 13.013C193.458 13.013 193.871 12.9617 194.23 12.859C194.594 12.7517 194.949 12.6047 195.294 12.418V10.213H193.733C193.644 10.213 193.572 10.1873 193.516 10.136C193.465 10.0847 193.439 10.0217 193.439 9.947V9.177H196.519ZM199.955 14H198.597V3.969H199.955V14ZM210.648 3.969V14H209.969C209.862 14 209.771 13.9813 209.696 13.944C209.626 13.9067 209.556 13.8437 209.486 13.755L203.683 6.195C203.693 6.31167 203.7 6.426 203.704 6.538C203.709 6.65 203.711 6.755 203.711 6.853V14H202.521V3.969H203.221C203.282 3.969 203.333 3.97367 203.375 3.983C203.417 3.98767 203.455 3.99933 203.487 4.018C203.52 4.032 203.553 4.05533 203.585 4.088C203.618 4.116 203.653 4.15333 203.69 4.2L209.493 11.753C209.484 11.6317 209.475 11.515 209.465 11.403C209.461 11.2863 209.458 11.1767 209.458 11.074V3.969H210.648ZM229.602 3.969L226.473 14H225.255L222.714 6.349C222.691 6.27433 222.668 6.195 222.644 6.111C222.626 6.027 222.605 5.93833 222.581 5.845C222.558 5.93833 222.535 6.027 222.511 6.111C222.488 6.195 222.465 6.27433 222.441 6.349L219.886 14H218.668L215.539 3.969H216.666C216.788 3.969 216.888 3.99933 216.967 4.06C217.051 4.12067 217.105 4.19767 217.128 4.291L219.2 11.263C219.233 11.389 219.263 11.5243 219.291 11.669C219.324 11.8137 219.354 11.9677 219.382 12.131C219.415 11.9677 219.448 11.8137 219.48 11.669C219.518 11.5197 219.557 11.3843 219.599 11.263L221.958 4.291C221.986 4.21167 222.04 4.13933 222.119 4.074C222.203 4.004 222.304 3.969 222.42 3.969H222.812C222.934 3.969 223.032 3.99933 223.106 4.06C223.181 4.12067 223.237 4.19767 223.274 4.291L225.626 11.263C225.668 11.3843 225.706 11.515 225.738 11.655C225.776 11.795 225.811 11.942 225.843 12.096C225.867 11.942 225.892 11.795 225.92 11.655C225.948 11.515 225.979 11.3843 226.011 11.263L228.09 4.291C228.114 4.207 228.165 4.13233 228.244 4.067C228.328 4.00167 228.429 3.969 228.545 3.969H229.602ZM232.453 14H231.095V3.969H232.453V14ZM241.802 5.11H238.554V14H237.203V5.11H233.948V3.969H241.802V5.11ZM251.418 3.969V14H250.06V9.436H244.649V14H243.291V3.969H244.649V8.442H250.06V3.969H251.418ZM263.752 12.894L263.745 14H257.564V3.969H263.745V5.075H258.922V8.407H262.828V9.471H258.922V12.894H263.752ZM276.081 3.969V14H274.891V6.629C274.891 6.531 274.894 6.426 274.898 6.314C274.908 6.202 274.917 6.08767 274.926 5.971L271.482 12.243C271.375 12.453 271.212 12.558 270.992 12.558H270.796C270.577 12.558 270.414 12.453 270.306 12.243L266.792 5.943C266.82 6.19033 266.834 6.419 266.834 6.629V14H265.644V3.969H266.645C266.767 3.969 266.86 3.98067 266.925 4.004C266.991 4.02733 267.054 4.09267 267.114 4.2L270.579 10.374C270.635 10.486 270.689 10.6027 270.74 10.724C270.796 10.8453 270.848 10.969 270.894 11.095C270.941 10.969 270.99 10.8453 271.041 10.724C271.093 10.598 271.149 10.479 271.209 10.367L274.611 4.2C274.667 4.09267 274.728 4.02733 274.793 4.004C274.863 3.98067 274.959 3.969 275.08 3.969H276.081ZM283.973 10.276L282.398 6.195C282.352 6.07367 282.303 5.93367 282.251 5.775C282.2 5.61167 282.151 5.439 282.104 5.257C282.006 5.635 281.906 5.95 281.803 6.202L280.228 10.276H283.973ZM286.801 14H285.751C285.63 14 285.532 13.9697 285.457 13.909C285.383 13.8483 285.327 13.7713 285.289 13.678L284.351 11.256H279.85L278.912 13.678C278.884 13.762 278.831 13.8367 278.751 13.902C278.672 13.9673 278.574 14 278.457 14H277.407L281.418 3.969H282.79L286.801 14ZM289.479 14H288.121V3.969H289.479V14ZM297.736 12.859V14H292.045V3.969H293.396V12.859H297.736Z" fill="#767676"/>
<line x1="329" y1="9.5" x2="440" y2="9.5" stroke="#E2E2E2"/>
<line y1="9.5" x2="111" y2="9.5" stroke="#E2E2E2"/>
</svg>
