<svg width="18" height="18" viewBox="0 0 18 18" fill="none" xmlns="http://www.w3.org/2000/svg">
<g clip-path="url(#clip0_4776:43452)">
<path d="M9 7.5C9 6.75 8.8905 6.75 8.625 6.75C8.49375 6.75 8.25 6.75 8.25 7.536C8.25 7.82925 8.4075 8.21775 8.7015 8.6715C8.895 8.0535 9 7.6575 9 7.5Z" fill="#2D9CDB"/>
<path d="M8.98306 10.2383L8.60656 11.3685L8.53906 11.5665C9.00763 11.42 9.48262 11.2949 9.96256 11.1915C9.73006 10.9935 9.55606 10.8353 9.48556 10.7655C9.31387 10.5938 9.14632 10.418 8.98306 10.2383Z" fill="#2D9CDB"/>
<path d="M5.25 14.1302C5.26575 14.1489 5.4105 14.2502 5.625 14.2502C5.838 14.2502 6.3945 13.8714 6.95775 13.0547L6.81 13.1252C6.04275 13.4882 5.25 13.8639 5.25 14.1302Z" fill="#2D9CDB"/>
<path d="M15.6398 3.8595L11.8905 0.11025C11.8557 0.0752468 11.8144 0.0474814 11.7688 0.028558C11.7232 0.00963471 11.6743 -7.14193e-05 11.625 3.95615e-07H3.75C2.92275 3.95615e-07 2.25 0.67275 2.25 1.5V16.5C2.25 17.3272 2.92275 18 3.75 18H14.25C15.0773 18 15.75 17.3272 15.75 16.5V4.125C15.7501 4.07566 15.7404 4.02679 15.7214 3.98122C15.7025 3.93565 15.6748 3.89428 15.6398 3.8595ZM12.375 12.75C12.039 12.75 11.346 12.288 10.7183 11.805C9.93525 11.952 8.94225 12.1853 8.14425 12.5002C7.37475 14.0685 6.32175 15 5.625 15C5.08425 15 4.5 14.667 4.5 14.13C4.5 13.389 5.29125 13.014 6.48825 12.447C6.75075 12.3225 7.03425 12.1882 7.332 12.0397C7.4145 11.9985 7.50075 11.958 7.58925 11.9198C7.69725 11.6768 7.79925 11.4143 7.8945 11.1315C8.091 10.5413 8.26575 10.0178 8.41425 9.564C7.80675 8.775 7.5 8.0955 7.5 7.536C7.5 6.26625 8.112 6 8.625 6C9.3 6 9.75 6.255 9.75 7.5C9.75 7.7925 9.5985 8.343 9.2535 9.40875C9.47475 9.672 9.72975 9.94875 10.0155 10.2345C10.2345 10.4543 10.5645 10.7355 10.9117 11.0085C11.4427 10.92 11.8492 10.875 12 10.875C12.4875 10.875 13.5 10.875 13.5 11.7615C13.5 12.2123 13.305 12.75 12.375 12.75ZM12.75 3.75C12.336 3.75 12 3.41325 12 3V1.28025L14.4697 3.75H12.75Z" fill="#2D9CDB"/>
<path d="M12.0014 11.625C11.9572 11.625 11.8792 11.631 11.7734 11.6422C12.0652 11.841 12.3014 11.9798 12.4034 12.0023C12.7514 12 12.7514 11.9303 12.7514 11.7622C12.7124 11.6797 12.5557 11.625 12.0014 11.625Z" fill="#2D9CDB"/>
</g>
<defs>
<clipPath id="clip0_4776:43452">
<rect width="18" height="18" fill="white"/>
</clipPath>
</defs>
</svg>
