<svg width="15" height="15" viewBox="0 0 15 15" fill="none" xmlns="http://www.w3.org/2000/svg">
<path fill-rule="evenodd" clip-rule="evenodd" d="M8.32279 12.1936L7.50057 12.9116L6.67835 12.1936C3.74162 9.62902 2.2502 7.3596 2.2502 5.25085C2.2502 2.26643 4.57799 0 7.50057 0C10.4232 0 12.7509 2.26643 12.7509 5.25085C12.7509 7.3596 11.2595 9.62902 8.32279 12.1936ZM2.76436 9.60316C3.07232 10.0248 3.41538 10.4537 3.79337 10.89C2.39661 11.2047 1.50011 11.6512 1.50011 12.001C1.50011 12.6063 4.18465 13.5012 7.50053 13.5012C10.8164 13.5012 13.5009 12.6063 13.5009 12.001C13.5009 11.6512 12.6044 11.2047 11.2077 10.89C11.5857 10.4537 11.9287 10.0248 12.2367 9.60316C13.9234 10.115 15.0011 10.9361 15.0011 12.001C15.0011 13.8814 11.641 15.0015 7.50053 15.0015C3.36004 15.0015 0 13.8814 0 12.001C0 10.9361 1.07763 10.115 2.76436 9.60316ZM7.50053 1.50286C9.60349 1.50286 11.2508 3.10674 11.2508 5.25347C11.2508 6.78895 10.0302 8.67845 7.50053 10.9214C4.97084 8.67845 3.75026 6.78895 3.75026 5.25347C3.75026 3.10674 5.39756 1.50286 7.50053 1.50286ZM7.50048 3.00228C8.74321 3.00228 9.75064 4.0098 9.75064 5.25265C9.75064 6.49549 8.74321 7.50301 7.50048 7.50301C6.25776 7.50301 5.25033 6.49549 5.25033 5.25265C5.25033 4.0098 6.25776 3.00228 7.50048 3.00228ZM6.75039 5.24837C6.75039 4.83409 7.0862 4.49825 7.50044 4.49825C7.91468 4.49825 8.25049 4.83409 8.25049 5.24837C8.25049 5.66265 7.91468 5.99849 7.50044 5.99849C7.0862 5.99849 6.75039 5.66265 6.75039 5.24837Z" fill="#EB5757"/>
</svg>
