<svg width="42" height="42" viewBox="0 0 42 42" fill="none" xmlns="http://www.w3.org/2000/svg">
<path d="M36.4267 8.44616L35.3612 7.39609C35.3017 7.33751 35.2214 7.30469 35.1377 7.30469C35.1374 7.30469 35.1371 7.30469 35.1368 7.30469C35.0527 7.30499 34.9721 7.33827 34.9128 7.39732L32.5577 9.74576L31.882 8.8857C31.7745 8.7486 31.5753 8.72421 31.4372 8.8308L30.2511 9.74545C30.1847 9.79652 30.1417 9.87182 30.1313 9.95448C30.121 10.0371 30.144 10.1206 30.1957 10.1862L32.1413 12.6618C32.1973 12.733 32.2813 12.777 32.3722 12.7823C32.3787 12.7828 32.385 12.7829 32.3914 12.7829C32.4756 12.7829 32.5565 12.7498 32.6161 12.6903L36.428 8.8903C36.5515 8.76731 36.5508 8.56839 36.4267 8.44616Z" fill="#D8D8D8"/>
<path d="M28.99 6.31579L26.4022 3.86562C26.2579 3.72892 26.0628 3.65234 25.8595 3.65234C25.8588 3.65234 25.858 3.65234 25.8572 3.65234C25.6532 3.65306 25.4573 3.73071 25.3134 3.86848L19.5939 9.34817L17.9529 7.34138C17.6917 7.02146 17.208 6.96456 16.8727 7.21327L13.9921 9.34746C13.8309 9.46662 13.7264 9.64232 13.7012 9.8352C13.676 10.0281 13.732 10.2227 13.8576 10.3759L18.5825 16.1523C18.7186 16.3183 18.9226 16.421 19.1433 16.4335C19.1591 16.4346 19.1745 16.435 19.1899 16.435C19.3944 16.435 19.5909 16.3577 19.7356 16.2188L28.993 7.35211C29.293 7.06512 29.2915 6.60099 28.99 6.31579Z" fill="#D8D8D8"/>
<path d="M10.7087 7.39609C10.6492 7.33751 10.5689 7.30469 10.4852 7.30469C10.4849 7.30469 10.4846 7.30469 10.4842 7.30469C10.4002 7.30499 10.3196 7.33827 10.2603 7.39732L7.9054 9.74554L7.22969 8.88566C7.12198 8.74856 6.9228 8.72417 6.7849 8.83075L5.59878 9.74538C5.53239 9.79645 5.48936 9.87175 5.47899 9.95441C5.46862 10.0371 5.49168 10.1205 5.54338 10.1861L7.48893 12.6618C7.54495 12.733 7.62899 12.777 7.71983 12.7823C7.72634 12.7828 7.73268 12.7829 7.73903 12.7829C7.82322 12.7829 7.90416 12.7498 7.9639 12.6903L11.7758 8.89026C11.8991 8.76726 11.8985 8.56836 11.7744 8.44613L10.7087 7.39609Z" fill="#D8D8D8"/>
<path d="M9.54263 29.0428C9.54263 30.7837 8.13135 32.195 6.39046 32.195C4.64956 32.195 3.23828 30.7837 3.23828 29.0428C3.23828 27.3019 4.64956 25.8906 6.39046 25.8906C8.13135 25.8906 9.54263 27.3019 9.54263 29.0428Z" stroke="#D8D8D8"/>
<path d="M26.8901 29.0427C26.8901 31.7921 24.6613 34.021 21.9119 34.021C19.1624 34.021 16.9336 31.7921 16.9336 29.0427C16.9336 26.2933 19.1624 24.0645 21.9119 24.0645C24.6613 24.0645 26.8901 26.2933 26.8901 29.0427Z" stroke="#D8D8D8"/>
<path d="M24.1501 29.0438C24.1501 30.2805 23.1476 31.2829 21.911 31.2829C20.6744 31.2829 19.6719 30.2805 19.6719 29.0438C19.6719 27.8072 20.6744 26.8047 21.911 26.8047C23.1476 26.8047 24.1501 27.8072 24.1501 29.0438Z" fill="#D8D8D8" stroke="#D8D8D8"/>
<path d="M38.7614 29.0428C38.7614 30.7837 37.3501 32.195 35.6092 32.195C33.8683 32.195 32.457 30.7837 32.457 29.0428C32.457 27.3019 33.8683 25.8906 35.6092 25.8906C37.3501 25.8906 38.7614 27.3019 38.7614 29.0428Z" stroke="#D8D8D8"/>
</svg>
