<svg width="62" height="62" viewBox="0 0 62 62" fill="none" xmlns="http://www.w3.org/2000/svg">
<path d="M41.7778 27.3541C41.7778 21.4144 36.9417 16.5908 31.0022 16.5908C25.0626 16.5908 20.2266 21.4144 20.2266 27.3541C20.2266 33.2936 25.0626 38.1296 31.0022 38.1296C36.9417 38.1296 41.7778 33.2936 41.7778 27.3541Z" fill="#EAF5FB"/>
<path d="M31 0C13.9004 0 0 13.9004 0 31C0 38.8999 2.97126 46.1128 7.8496 51.5917C11.5097 45.1777 17.5653 40.6636 24.5587 38.9295C20.5007 36.6617 17.7477 32.3276 17.7477 27.3575C17.7477 20.0495 23.6921 14.105 31.0002 14.105C38.3082 14.105 44.2527 20.0495 44.2527 27.3575C44.2527 32.3276 41.4996 36.6617 37.4416 38.9295C44.435 40.6636 50.4905 45.1775 54.1506 51.5914C59.0289 46.1125 62 38.8996 62 31C62 13.9004 48.0996 0 31 0Z" fill="#EAF5FB"/>
<path d="M9.64453 53.4443C15.2121 58.7391 22.7265 62.0004 30.9973 62.0004C39.2681 62.0004 46.7825 58.7391 52.3501 53.4443C48.1341 45.5207 39.9625 40.6104 30.9973 40.6104C22.0321 40.6104 13.8605 45.5207 9.64453 53.4443Z" fill="#EAF5FB"/>
</svg>
